<svg width="192" height="192" viewBox="0 0 192 192" fill="none" xmlns="http://www.w3.org/2000/svg">
<g filter="url(#filter0_d_18_185)">
<path d="M69 84.75H123C127.774 84.75 132.352 86.6464 135.728 90.0221C139.104 93.3977 141 97.9761 141 102.75V145.5C141 146.693 140.526 147.838 139.682 148.682C138.838 149.526 137.693 150 136.5 150H55.5C54.3065 150 53.1619 149.526 52.318 148.682C51.4741 147.838 51 146.693 51 145.5V102.75C51 97.9761 52.8964 93.3977 56.2721 90.0221C59.6477 86.6464 64.2261 84.75 69 84.75V84.75Z" stroke="#24D88D" stroke-width="13.5" stroke-linecap="round" stroke-linejoin="round"/>
<path d="M69.0001 84.7501V75.7501C68.9927 73.9752 69.3368 72.2164 70.0126 70.5751C70.6884 68.9338 71.6825 67.4427 72.9376 66.1876C74.1927 64.9325 75.6838 63.9384 77.3251 63.2626C78.9664 62.5868 80.7252 62.2427 82.5001 62.2501H109.5C111.275 62.2427 113.034 62.5868 114.675 63.2626C116.316 63.9384 117.808 64.9325 119.063 66.1876C120.318 67.4427 121.312 68.9338 121.988 70.5751C122.663 72.2164 123.008 73.9752 123 75.7501V84.7501" stroke="#24D88D" stroke-width="13.5" stroke-linecap="round" stroke-linejoin="round"/>
<path d="M127.5 46.5C127.5 44.1131 126.552 41.8239 124.864 40.136C123.176 38.4482 120.887 37.5 118.5 37.5H82.5" stroke="#24D88D" stroke-width="13.5" stroke-linecap="round" stroke-linejoin="round"/>
<path d="M96 37.5V62.25" stroke="#24D88D" stroke-width="13.5" stroke-linecap="round" stroke-linejoin="round"/>
</g>
<defs>
<filter id="filter0_d_18_185" x="24.25" y="14.75" width="143.5" height="166" filterUnits="userSpaceOnUse" color-interpolation-filters="sRGB">
<feFlood flood-opacity="0" result="BackgroundImageFix"/>
<feColorMatrix in="SourceAlpha" type="matrix" values="0 0 0 0 0 0 0 0 0 0 0 0 0 0 0 0 0 0 127 0" result="hardAlpha"/>
<feOffset dy="4"/>
<feGaussianBlur stdDeviation="10"/>
<feComposite in2="hardAlpha" operator="out"/>
<feColorMatrix type="matrix" values="0 0 0 0 0.0194792 0 0 0 0 0.425 0 0 0 0 0.254681 0 0 0 1 0"/>
<feBlend mode="normal" in2="BackgroundImageFix" result="effect1_dropShadow_18_185"/>
<feBlend mode="normal" in="SourceGraphic" in2="effect1_dropShadow_18_185" result="shape"/>
</filter>
</defs>
</svg>
